M48
;GenerationSoftware,Autodesk,EAGLE,9.6.2*%
;CreationDate,2023-07-20T13:31:36Z*%
FMAT,2
ICI,OFF
METRIC,TZ,000.000
T7C0.508
T6C0.610
T5C0.800
T4C0.813
T3C0.900
T2C1.000
T1C2.500
%
G90
M71
T1
X17350Y56160
X17350Y44120
T2
X22080Y48885
X20060Y51390
X20060Y48890
X22075Y51370
T3
X96990Y54890
X96990Y52350
X96990Y49810
T4
X90060Y49540
X90060Y57160
X87520Y57160
X84980Y57160
X82440Y57160
X79900Y57160
X77360Y57160
X74820Y57160
X72280Y49540
X72280Y57160
X69740Y57160
X67200Y57160
X64660Y57160
X62120Y57160
X59580Y57160
X57040Y57160
X57040Y53660
X59580Y53660
X62120Y53660
X64660Y53660
X67200Y53660
X69740Y53660
X72280Y53660
X74820Y53660
X87520Y49540
X79900Y53660
X82440Y53660
X84980Y53660
X87520Y53660
X90060Y53660
X90060Y46040
X84980Y46040
X82440Y46040
X79900Y46040
X77360Y46040
X74820Y46040
X72280Y46040
X69740Y46040
X67200Y46040
X64660Y46040
X67200Y49540
X59580Y46040
X57040Y46040
X87520Y46040
X64660Y49540
X62120Y49540
X59580Y49540
X57040Y49540
X77360Y53660
X69740Y49540
X74820Y49540
X77360Y49540
X51455Y41685
X79900Y49540
X82440Y49540
X84980Y49540
X62120Y46040
T5
X89371Y62999
X91911Y62999
X94451Y62999
X96991Y62999
X96991Y78239
X38243Y62924
X91911Y78239
X89371Y78239
X86831Y78239
X84291Y78239
X94451Y78239
X33163Y62924
X35703Y62924
X40783Y62924
X43323Y62924
X45863Y62924
X45863Y78165
X43323Y78165
X40783Y78165
X38243Y78165
X35703Y78165
X33163Y78165
X84291Y62999
X86831Y62999
X77480Y60150
X80020Y60150
T6
X41350Y72160
T7
X67349Y62296
X86910Y72280
X94485Y67705
X43358Y67923
X79511Y70081
X66358Y75248
X73620Y63585
X70700Y66905
X53500Y65620
X57666Y71795
X91999Y69143
X48050Y73343
X77470Y74295
X82681Y77311
X49586Y55137
X49660Y49054
X55400Y47277
X37783Y47307
X45822Y58277
X44995Y49550
X45660Y41860
X37465Y52070
X50135Y47604
X32909Y52994
X29789Y59802
X25850Y49545
X21710Y64065
X29665Y70165
X33100Y54825
X97560Y44055
X29314Y56902
X50165Y57150
X49560Y46316
X42201Y57135
X17115Y75343
X46635Y44099
X46831Y51911
X60836Y51699
X83758Y42313
X66199Y41751
X83270Y41048
X59014Y69100
X43183Y69721
X71630Y70620
X84580Y65770
X95840Y60027
X65402Y76518
X77283Y68995
X67166Y69330
X64510Y63895
M30