G04 EAGLE Gerber RS-274X export*
G75*
%MOMM*%
%FSLAX34Y34*%
%LPD*%
%INTop Copper*%
%IPPOS*%
%AMOC8*
5,1,8,0,0,1.08239X$1,22.5*%
G01*
%ADD10R,1.308000X1.308000*%
%ADD11C,1.320800*%
%ADD12C,1.408000*%
%ADD13R,2.000000X2.200000*%
%ADD14R,3.516000X3.516000*%
%ADD15R,1.508000X1.508000*%
%ADD16R,2.200000X6.000000*%
%ADD17R,2.000000X3.300000*%
%ADD18R,2.000000X3.500000*%
%ADD19R,1.500000X3.000000*%
%ADD20R,2.159000X1.270000*%
%ADD21C,0.304800*%
%ADD22C,0.609600*%
%ADD23C,0.830581*%
%ADD24C,0.812800*%
%ADD25C,0.914400*%
%ADD26C,1.219200*%
%ADD27C,0.914400*%
%ADD28C,0.838200*%
%ADD29C,0.457200*%
%ADD30C,0.406400*%
%ADD31C,0.474981*%
%ADD32C,1.016000*%
%ADD33C,0.381000*%

G36*
X316018Y402583D02*
X316018Y402583D01*
X316036Y402581D01*
X316218Y402602D01*
X316401Y402621D01*
X316418Y402626D01*
X316435Y402628D01*
X316610Y402685D01*
X316786Y402739D01*
X316801Y402747D01*
X316818Y402753D01*
X316978Y402843D01*
X317140Y402931D01*
X317153Y402942D01*
X317169Y402951D01*
X317308Y403071D01*
X317449Y403188D01*
X317460Y403202D01*
X317474Y403214D01*
X317586Y403359D01*
X317701Y403502D01*
X317709Y403518D01*
X317720Y403532D01*
X317802Y403697D01*
X317887Y403859D01*
X317892Y403876D01*
X317900Y403892D01*
X317947Y404071D01*
X317998Y404246D01*
X318000Y404264D01*
X318004Y404281D01*
X318031Y404612D01*
X318031Y788388D01*
X318029Y788406D01*
X318031Y788424D01*
X318010Y788606D01*
X317991Y788789D01*
X317986Y788806D01*
X317984Y788823D01*
X317927Y788998D01*
X317873Y789174D01*
X317865Y789189D01*
X317859Y789206D01*
X317769Y789366D01*
X317681Y789528D01*
X317670Y789541D01*
X317661Y789557D01*
X317541Y789696D01*
X317424Y789837D01*
X317410Y789848D01*
X317398Y789862D01*
X317253Y789974D01*
X317110Y790089D01*
X317094Y790097D01*
X317080Y790108D01*
X316915Y790190D01*
X316753Y790275D01*
X316736Y790280D01*
X316720Y790288D01*
X316541Y790335D01*
X316366Y790386D01*
X316348Y790388D01*
X316331Y790392D01*
X316000Y790419D01*
X147112Y790419D01*
X147094Y790417D01*
X147076Y790419D01*
X146894Y790398D01*
X146711Y790379D01*
X146694Y790374D01*
X146677Y790372D01*
X146502Y790315D01*
X146326Y790261D01*
X146311Y790253D01*
X146294Y790247D01*
X146134Y790157D01*
X145972Y790069D01*
X145959Y790058D01*
X145943Y790049D01*
X145804Y789929D01*
X145663Y789812D01*
X145652Y789798D01*
X145638Y789786D01*
X145526Y789641D01*
X145411Y789498D01*
X145403Y789482D01*
X145392Y789468D01*
X145310Y789303D01*
X145225Y789141D01*
X145220Y789124D01*
X145212Y789108D01*
X145165Y788929D01*
X145114Y788754D01*
X145112Y788736D01*
X145108Y788719D01*
X145081Y788388D01*
X145081Y404612D01*
X145083Y404594D01*
X145081Y404576D01*
X145102Y404394D01*
X145121Y404211D01*
X145126Y404194D01*
X145128Y404177D01*
X145185Y404002D01*
X145239Y403826D01*
X145247Y403811D01*
X145253Y403794D01*
X145343Y403634D01*
X145431Y403472D01*
X145442Y403459D01*
X145451Y403443D01*
X145571Y403304D01*
X145688Y403163D01*
X145702Y403152D01*
X145714Y403138D01*
X145859Y403026D01*
X146002Y402911D01*
X146018Y402903D01*
X146032Y402892D01*
X146197Y402810D01*
X146359Y402725D01*
X146376Y402720D01*
X146392Y402712D01*
X146571Y402665D01*
X146746Y402614D01*
X146764Y402612D01*
X146781Y402608D01*
X147112Y402581D01*
X316000Y402581D01*
X316018Y402583D01*
G37*
%LPC*%
G36*
X212368Y504127D02*
X212368Y504127D01*
X212011Y504484D01*
X211997Y504495D01*
X211986Y504509D01*
X211842Y504623D01*
X211700Y504739D01*
X211684Y504747D01*
X211670Y504759D01*
X211506Y504842D01*
X211344Y504928D01*
X211327Y504933D01*
X211311Y504941D01*
X211134Y504990D01*
X210958Y505042D01*
X210940Y505044D01*
X210923Y505049D01*
X210740Y505062D01*
X210557Y505079D01*
X210539Y505077D01*
X210522Y505078D01*
X210340Y505055D01*
X210157Y505035D01*
X210140Y505030D01*
X210122Y505028D01*
X209949Y504970D01*
X209773Y504914D01*
X209757Y504905D01*
X209741Y504900D01*
X209581Y504808D01*
X209421Y504719D01*
X209407Y504708D01*
X209392Y504699D01*
X209139Y504484D01*
X208982Y504327D01*
X192218Y504327D01*
X191027Y505518D01*
X191027Y522282D01*
X192218Y523473D01*
X208982Y523473D01*
X209339Y523116D01*
X209352Y523105D01*
X209364Y523091D01*
X209508Y522978D01*
X209650Y522861D01*
X209666Y522853D01*
X209680Y522842D01*
X209844Y522758D01*
X210006Y522672D01*
X210023Y522667D01*
X210039Y522659D01*
X210216Y522610D01*
X210392Y522558D01*
X210410Y522556D01*
X210427Y522551D01*
X210610Y522538D01*
X210793Y522521D01*
X210811Y522523D01*
X210828Y522522D01*
X211010Y522545D01*
X211193Y522565D01*
X211210Y522570D01*
X211228Y522572D01*
X211402Y522631D01*
X211577Y522686D01*
X211592Y522695D01*
X211609Y522700D01*
X211769Y522792D01*
X211929Y522881D01*
X211943Y522892D01*
X211958Y522901D01*
X212211Y523116D01*
X212368Y523273D01*
X229132Y523273D01*
X230323Y522082D01*
X230323Y505318D01*
X229132Y504127D01*
X212368Y504127D01*
G37*
%LPD*%
%LPC*%
G36*
X203099Y478819D02*
X203099Y478819D01*
X203099Y488432D01*
X203097Y488450D01*
X203099Y488467D01*
X203078Y488649D01*
X203059Y488832D01*
X203054Y488849D01*
X203052Y488867D01*
X203039Y488908D01*
X203066Y489002D01*
X203068Y489020D01*
X203072Y489037D01*
X203099Y489368D01*
X203099Y498981D01*
X208475Y498981D01*
X209121Y498808D01*
X209728Y498457D01*
X209817Y498386D01*
X209959Y498270D01*
X209975Y498262D01*
X209989Y498251D01*
X210153Y498168D01*
X210315Y498082D01*
X210332Y498076D01*
X210348Y498068D01*
X210525Y498019D01*
X210701Y497967D01*
X210719Y497965D01*
X210736Y497960D01*
X210920Y497947D01*
X211102Y497930D01*
X211120Y497932D01*
X211138Y497931D01*
X211320Y497954D01*
X211502Y497974D01*
X211519Y497979D01*
X211537Y497981D01*
X211711Y498040D01*
X211886Y498095D01*
X211902Y498104D01*
X211919Y498110D01*
X212078Y498202D01*
X212238Y498290D01*
X212252Y498302D01*
X212268Y498311D01*
X212400Y498423D01*
X229182Y498423D01*
X230373Y497232D01*
X230373Y480468D01*
X229182Y479277D01*
X212410Y479277D01*
X212301Y479363D01*
X212159Y479480D01*
X212143Y479488D01*
X212129Y479499D01*
X211965Y479583D01*
X211803Y479668D01*
X211786Y479674D01*
X211770Y479682D01*
X211593Y479731D01*
X211417Y479783D01*
X211399Y479785D01*
X211382Y479790D01*
X211200Y479803D01*
X211016Y479820D01*
X210998Y479818D01*
X210981Y479819D01*
X210800Y479796D01*
X210616Y479776D01*
X210599Y479771D01*
X210581Y479769D01*
X210407Y479710D01*
X210232Y479655D01*
X210217Y479646D01*
X210199Y479640D01*
X210040Y479548D01*
X209880Y479460D01*
X209866Y479448D01*
X209851Y479439D01*
X209757Y479360D01*
X209121Y478992D01*
X208475Y478819D01*
X203099Y478819D01*
G37*
%LPD*%
%LPC*%
G36*
X177563Y565663D02*
X177563Y565663D01*
X177563Y581721D01*
X191415Y581721D01*
X192061Y581548D01*
X192640Y581213D01*
X193113Y580740D01*
X193448Y580161D01*
X193621Y579515D01*
X193621Y565663D01*
X177563Y565663D01*
G37*
%LPD*%
%LPC*%
G36*
X177563Y445263D02*
X177563Y445263D01*
X177563Y461321D01*
X191415Y461321D01*
X192061Y461148D01*
X192640Y460813D01*
X193113Y460340D01*
X193448Y459761D01*
X193621Y459115D01*
X193621Y445263D01*
X177563Y445263D01*
G37*
%LPD*%
%LPC*%
G36*
X153379Y565663D02*
X153379Y565663D01*
X153379Y579515D01*
X153552Y580161D01*
X153887Y580740D01*
X154360Y581213D01*
X154939Y581548D01*
X155585Y581721D01*
X169437Y581721D01*
X169437Y565663D01*
X153379Y565663D01*
G37*
%LPD*%
%LPC*%
G36*
X177563Y541479D02*
X177563Y541479D01*
X177563Y557537D01*
X193621Y557537D01*
X193621Y543685D01*
X193448Y543039D01*
X193113Y542460D01*
X192640Y541987D01*
X192061Y541652D01*
X191415Y541479D01*
X177563Y541479D01*
G37*
%LPD*%
%LPC*%
G36*
X153379Y445263D02*
X153379Y445263D01*
X153379Y459115D01*
X153552Y459761D01*
X153887Y460340D01*
X154360Y460813D01*
X154939Y461148D01*
X155585Y461321D01*
X169437Y461321D01*
X169437Y445263D01*
X153379Y445263D01*
G37*
%LPD*%
%LPC*%
G36*
X177563Y421079D02*
X177563Y421079D01*
X177563Y437137D01*
X193621Y437137D01*
X193621Y423285D01*
X193448Y422639D01*
X193113Y422060D01*
X192640Y421587D01*
X192061Y421252D01*
X191415Y421079D01*
X177563Y421079D01*
G37*
%LPD*%
%LPC*%
G36*
X155585Y541479D02*
X155585Y541479D01*
X154939Y541652D01*
X154360Y541987D01*
X153887Y542460D01*
X153552Y543039D01*
X153379Y543685D01*
X153379Y557537D01*
X169437Y557537D01*
X169437Y541479D01*
X155585Y541479D01*
G37*
%LPD*%
%LPC*%
G36*
X155585Y421079D02*
X155585Y421079D01*
X154939Y421252D01*
X154360Y421587D01*
X153887Y422060D01*
X153552Y422639D01*
X153379Y423285D01*
X153379Y437137D01*
X169437Y437137D01*
X169437Y421079D01*
X155585Y421079D01*
G37*
%LPD*%
%LPC*%
G36*
X190519Y491399D02*
X190519Y491399D01*
X190519Y496775D01*
X190692Y497421D01*
X191027Y498000D01*
X191500Y498473D01*
X192079Y498808D01*
X192725Y498981D01*
X198101Y498981D01*
X198101Y491399D01*
X190519Y491399D01*
G37*
%LPD*%
%LPC*%
G36*
X192725Y478819D02*
X192725Y478819D01*
X192079Y478992D01*
X191500Y479327D01*
X191027Y479800D01*
X190692Y480379D01*
X190519Y481025D01*
X190519Y486401D01*
X198101Y486401D01*
X198101Y478819D01*
X192725Y478819D01*
G37*
%LPD*%
%LPC*%
G36*
X173499Y561599D02*
X173499Y561599D01*
X173499Y561601D01*
X173501Y561601D01*
X173501Y561599D01*
X173499Y561599D01*
G37*
%LPD*%
%LPC*%
G36*
X173499Y441199D02*
X173499Y441199D01*
X173499Y441201D01*
X173501Y441201D01*
X173501Y441199D01*
X173499Y441199D01*
G37*
%LPD*%
D10*
X331629Y629245D03*
X357029Y629245D03*
X382429Y629245D03*
X407829Y629245D03*
X433229Y629245D03*
X458629Y629245D03*
X458629Y781645D03*
X433229Y781645D03*
X407829Y781645D03*
X382429Y781645D03*
X357029Y781645D03*
X331629Y781645D03*
X842907Y629991D03*
X868307Y629991D03*
X893707Y629991D03*
X919107Y629991D03*
X944507Y629991D03*
X969907Y629991D03*
X969907Y782391D03*
X944507Y782391D03*
X919107Y782391D03*
X893707Y782391D03*
X868307Y782391D03*
X842907Y782391D03*
D11*
X570400Y467004D02*
X570400Y453796D01*
X595800Y453796D02*
X595800Y467004D01*
X621200Y467004D02*
X621200Y453796D01*
X646600Y453796D02*
X646600Y467004D01*
X672000Y467004D02*
X672000Y453796D01*
X697400Y453796D02*
X697400Y467004D01*
X722800Y467004D02*
X722800Y453796D01*
X748200Y453796D02*
X748200Y467004D01*
X773600Y467004D02*
X773600Y453796D01*
X799000Y453796D02*
X799000Y467004D01*
X824400Y467004D02*
X824400Y453796D01*
X849800Y453796D02*
X849800Y467004D01*
X875200Y467004D02*
X875200Y453796D01*
X900600Y453796D02*
X900600Y467004D01*
X900600Y529996D02*
X900600Y543204D01*
X875200Y543204D02*
X875200Y529996D01*
X849800Y529996D02*
X849800Y543204D01*
X824400Y543204D02*
X824400Y529996D01*
X799000Y529996D02*
X799000Y543204D01*
X773600Y543204D02*
X773600Y529996D01*
X748200Y529996D02*
X748200Y543204D01*
X722800Y543204D02*
X722800Y529996D01*
X697400Y529996D02*
X697400Y543204D01*
X672000Y543204D02*
X672000Y529996D01*
X646600Y529996D02*
X646600Y543204D01*
X621200Y543204D02*
X621200Y529996D01*
X595800Y529996D02*
X595800Y543204D01*
X570400Y543204D02*
X570400Y529996D01*
X570400Y564996D02*
X570400Y578204D01*
X595800Y578204D02*
X595800Y564996D01*
X621200Y564996D02*
X621200Y578204D01*
X646600Y578204D02*
X646600Y564996D01*
X672000Y564996D02*
X672000Y578204D01*
X697400Y578204D02*
X697400Y564996D01*
X722800Y564996D02*
X722800Y578204D01*
X748200Y578204D02*
X748200Y564996D01*
X773600Y564996D02*
X773600Y578204D01*
X799000Y578204D02*
X799000Y564996D01*
X824400Y564996D02*
X824400Y578204D01*
X849800Y578204D02*
X849800Y564996D01*
X875200Y564996D02*
X875200Y578204D01*
X900600Y578204D02*
X900600Y564996D01*
X900600Y502004D02*
X900600Y488796D01*
X875200Y488796D02*
X875200Y502004D01*
X849800Y502004D02*
X849800Y488796D01*
X824400Y488796D02*
X824400Y502004D01*
X799000Y502004D02*
X799000Y488796D01*
X773600Y488796D02*
X773600Y502004D01*
X748200Y502004D02*
X748200Y488796D01*
X722800Y488796D02*
X722800Y502004D01*
X697400Y502004D02*
X697400Y488796D01*
X672000Y488796D02*
X672000Y502004D01*
X646600Y502004D02*
X646600Y488796D01*
X621200Y488796D02*
X621200Y502004D01*
X595800Y502004D02*
X595800Y488796D01*
X570400Y488796D02*
X570400Y502004D01*
D12*
X969900Y548900D03*
X969900Y523500D03*
X969900Y498100D03*
D13*
X354500Y487000D03*
X354500Y521500D03*
D14*
X173500Y561600D03*
X173500Y441200D03*
D15*
X200600Y513900D03*
X200600Y488900D03*
X220750Y513700D03*
X220800Y488850D03*
D16*
X353800Y432000D03*
X393200Y432000D03*
X433800Y432000D03*
D17*
X522500Y470500D03*
D18*
X522500Y570500D03*
D19*
X555700Y414800D03*
X628300Y414300D03*
X719700Y415800D03*
X792300Y415300D03*
X959300Y414700D03*
X886700Y415200D03*
D10*
X774800Y601500D03*
X800200Y601500D03*
D20*
X752290Y600850D03*
X724710Y600850D03*
X822910Y599350D03*
X850490Y599350D03*
D21*
X557213Y415925D02*
X555700Y414800D01*
D22*
X834863Y614525D02*
X849313Y600075D01*
X834863Y614525D02*
X741525Y614525D01*
X727075Y600075D01*
D21*
X849313Y600075D02*
X850490Y599350D01*
X727075Y600075D02*
X724710Y600850D01*
X958850Y420900D02*
X958850Y416700D01*
X958850Y415925D01*
X959300Y414700D01*
D23*
X501650Y571500D02*
X498900Y568750D01*
D24*
X501650Y571500D02*
X522288Y571500D01*
D21*
X522500Y570500D01*
X555625Y415925D02*
X555700Y414800D01*
D25*
X171150Y753425D03*
X422013Y571350D03*
X501650Y571500D03*
X293138Y569025D03*
D24*
X699350Y600850D02*
X724710Y600850D01*
X699350Y600850D02*
X693600Y606600D01*
D26*
X514550Y416850D03*
D22*
X737650Y582150D02*
X748200Y571600D01*
X737650Y582150D02*
X737650Y588650D01*
X725450Y600850D01*
X724710Y600850D01*
D24*
X937800Y441950D02*
X940025Y439725D01*
X958850Y420900D01*
D25*
X975600Y440550D03*
D24*
X969900Y523500D02*
X957100Y523500D01*
X937800Y504200D01*
X937800Y441950D01*
X958850Y423800D02*
X975600Y440550D01*
X958850Y423800D02*
X958850Y416700D01*
D21*
X515475Y415925D02*
X514550Y416850D01*
X515475Y415925D02*
X555625Y415925D01*
X557213Y415925D01*
D24*
X448350Y606600D02*
X693600Y606600D01*
X448350Y606600D02*
X422013Y580263D01*
D25*
X331000Y548250D03*
D27*
X748200Y460400D02*
X752800Y455800D01*
X752800Y438600D01*
X938900Y438600D01*
X940025Y439725D01*
X742500Y438600D02*
X719700Y415800D01*
X742500Y438600D02*
X752800Y438600D01*
D25*
X296650Y701650D03*
X217100Y640650D03*
X258500Y495450D03*
D24*
X422013Y571350D02*
X422013Y580263D01*
X422013Y571350D02*
X496300Y571350D01*
X498900Y568750D01*
X422013Y571350D02*
X419313Y568650D01*
X332650Y568650D01*
X331000Y567000D01*
X331000Y548250D01*
D25*
X297888Y598025D03*
D24*
X293138Y569025D02*
X332275Y569025D01*
X332650Y568650D01*
D27*
X329088Y529938D02*
X349277Y529938D01*
D21*
X354500Y521500D01*
D27*
X355600Y520700D02*
X374650Y520700D01*
D21*
X355600Y520700D02*
X354500Y521500D01*
D25*
X329088Y529938D03*
X501350Y476038D03*
X374650Y520700D03*
D24*
X355400Y542100D02*
X362200Y548900D01*
X355400Y542100D02*
X355400Y520900D01*
X355600Y520700D01*
D25*
X456600Y418600D03*
D24*
X709750Y447350D02*
X722800Y460400D01*
X702400Y438000D02*
X490450Y438000D01*
X479900Y427450D01*
X479900Y424200D01*
X474300Y418600D01*
X456600Y418600D01*
X709750Y445350D02*
X709750Y447350D01*
X709750Y445350D02*
X702400Y438000D01*
X773600Y517550D02*
X773600Y536600D01*
X773600Y517550D02*
X773600Y495400D01*
D22*
X722800Y462750D02*
X722800Y460400D01*
X735650Y475600D02*
X735650Y516550D01*
X736650Y517550D01*
X773600Y517550D01*
X735650Y475600D02*
X722800Y462750D01*
X735650Y558750D02*
X722800Y571600D01*
X735650Y558750D02*
X735650Y516550D01*
X501350Y476038D02*
X469313Y476038D01*
D27*
X437850Y548900D02*
X362200Y548900D01*
X437850Y548900D02*
X450825Y535925D01*
D25*
X449950Y495500D03*
D28*
X449950Y495400D02*
X469313Y476038D01*
X449950Y495400D02*
X449950Y495500D01*
X450825Y496275D02*
X450825Y535925D01*
X450825Y496275D02*
X449950Y495400D01*
D25*
X458225Y582775D03*
D29*
X611900Y580900D02*
X621200Y571600D01*
X611900Y580900D02*
X611900Y590200D01*
X607150Y594950D01*
X470300Y594950D01*
X458225Y582875D01*
X458225Y582775D01*
D25*
X495600Y463163D03*
X377825Y473075D03*
D29*
X466904Y463163D02*
X495600Y463163D01*
X447566Y482500D02*
X419800Y482500D01*
X413050Y489250D01*
X413050Y492500D01*
X412750Y492800D01*
X379250Y492800D01*
X377825Y491375D01*
X377825Y473075D01*
X447566Y482500D02*
X466904Y463163D01*
X354013Y485775D02*
X354013Y433388D01*
D21*
X354013Y485775D02*
X354500Y487000D01*
X354013Y433388D02*
X353800Y432000D01*
D29*
X393200Y432000D02*
X393200Y466750D01*
X394550Y468100D01*
X447450Y468100D01*
X495243Y451350D02*
X499093Y447500D01*
X557500Y447500D01*
X570400Y460400D01*
X464200Y451350D02*
X447450Y468100D01*
X464200Y451350D02*
X495243Y451350D01*
X604638Y554238D02*
X620713Y538163D01*
D30*
X604638Y554238D02*
X588763Y554238D01*
D29*
X571500Y571500D01*
D21*
X620713Y538163D02*
X621200Y536600D01*
X571500Y571500D02*
X570400Y571600D01*
X525163Y472775D02*
X523875Y471488D01*
D29*
X525163Y472775D02*
X554000Y472775D01*
D21*
X523875Y471488D02*
X522500Y470500D01*
D25*
X554000Y472775D03*
D21*
X501363Y495300D02*
X496600Y490538D01*
X501363Y495300D02*
X569913Y495300D01*
X570400Y495400D01*
D25*
X496600Y490538D03*
D21*
X504763Y542475D02*
X541175Y542475D01*
X504763Y542475D02*
X495863Y551375D01*
X541175Y542475D02*
X552738Y554038D01*
X579438Y554038D01*
X595313Y538163D01*
X595800Y536600D01*
D25*
X495863Y551375D03*
D29*
X826813Y773113D02*
X832850Y767075D01*
D31*
X852800Y767075D01*
D29*
X866775Y781050D01*
D21*
X868307Y782391D01*
D29*
X395288Y742950D02*
X357188Y781050D01*
X395288Y742950D02*
X774700Y742950D01*
D21*
X357188Y781050D02*
X357029Y781645D01*
D25*
X826813Y773113D03*
X774700Y742950D03*
X480500Y733425D03*
D29*
X920941Y733425D02*
X969907Y782391D01*
X920941Y733425D02*
X480500Y733425D01*
X869888Y697525D02*
X888000Y697525D01*
X913888Y697525D02*
X919988Y691425D01*
X913888Y697525D02*
X888000Y697525D01*
X869888Y697525D02*
X849463Y717950D01*
X586613Y717950D01*
D25*
X919988Y691425D03*
X576663Y717950D03*
D32*
X413500Y721600D03*
D29*
X576663Y717950D02*
X586613Y717950D01*
X573013Y721600D02*
X413500Y721600D01*
X573013Y721600D02*
X576663Y717950D01*
D25*
X535000Y656200D03*
D29*
X357029Y637579D02*
X357029Y629245D01*
X357029Y637579D02*
X375750Y656300D01*
X534900Y656300D01*
X535000Y656200D01*
X534900Y656300D02*
X809950Y656300D01*
X851398Y646900D02*
X868307Y629991D01*
X819350Y646900D02*
X809950Y656300D01*
X819350Y646900D02*
X851398Y646900D01*
X369350Y667800D02*
X368750Y667800D01*
X331902Y630952D01*
D21*
X331629Y629245D01*
D25*
X707000Y669050D03*
D29*
X370600Y669050D02*
X369350Y667800D01*
X370600Y669050D02*
X707000Y669050D01*
D25*
X736200Y635850D03*
D29*
X742059Y629991D01*
X842907Y629991D01*
X668588Y757488D02*
X663575Y752475D01*
X668588Y757488D02*
X868613Y757488D01*
X892175Y781050D01*
D21*
X893707Y782391D01*
D29*
X409575Y754063D02*
X382588Y781050D01*
X409575Y754063D02*
X663575Y754063D01*
D21*
X382588Y781050D02*
X382429Y781645D01*
X663575Y754063D02*
X663575Y752475D01*
D25*
X663575Y752475D03*
D21*
X795113Y680313D02*
X795200Y680225D01*
D29*
X795113Y680313D02*
X795113Y700813D01*
X795200Y680225D02*
X434575Y680225D01*
X433575Y679225D01*
D25*
X795113Y700813D03*
X433575Y679225D03*
D29*
X795713Y701413D02*
X845238Y701413D01*
D33*
X795713Y701413D02*
X795113Y700813D01*
D29*
X845238Y701413D02*
X869250Y677400D01*
D25*
X944850Y677050D03*
D29*
X944500Y677400D02*
X869250Y677400D01*
X944500Y677400D02*
X944850Y677050D01*
D25*
X869100Y722800D03*
D33*
X946400Y541200D02*
X900600Y495400D01*
X946400Y541200D02*
X950300Y541200D01*
X950300Y568300D01*
X967100Y585100D01*
X982434Y585100D01*
X982434Y723550D01*
X869850Y723550D01*
X869100Y722800D01*
D25*
X673488Y622963D03*
X645100Y638950D03*
D29*
X657500Y638950D01*
X673488Y622963D01*
D21*
X671663Y692825D02*
X671663Y693300D01*
X769950Y692825D02*
X772825Y689950D01*
D29*
X769950Y692825D02*
X671663Y692825D01*
D25*
X671663Y693300D03*
X772825Y689950D03*
D22*
X924650Y534050D02*
X907613Y517013D01*
X871025Y517013D01*
D25*
X958400Y600275D03*
D22*
X958425Y595425D01*
X924650Y561650D02*
X924650Y534050D01*
X924650Y561650D02*
X958425Y595425D01*
X871025Y517013D02*
X866338Y517013D01*
X849800Y533550D02*
X849800Y536600D01*
X849800Y533550D02*
X866338Y517013D01*
X871025Y517013D02*
X849800Y495788D01*
X849800Y495400D01*
D25*
X845800Y657700D03*
D22*
X969907Y645643D02*
X969907Y629991D01*
X957850Y657700D02*
X845800Y657700D01*
X957850Y657700D02*
X969907Y645643D01*
X824400Y536600D02*
X824400Y495400D01*
D21*
X800100Y496888D02*
X800100Y536575D01*
X800100Y496888D02*
X799000Y495400D01*
X800100Y536575D02*
X799000Y536600D01*
D25*
X716300Y706200D03*
D22*
X371650Y741624D02*
X331629Y781645D01*
X371650Y741624D02*
X371650Y708950D01*
X373736Y706865D01*
X573363Y706865D01*
X575177Y705050D01*
X698200Y706200D02*
X716300Y706200D01*
X698200Y706200D02*
X697050Y705050D01*
X575177Y705050D01*
X590138Y691000D02*
X558438Y691000D01*
X554025Y695413D01*
X433625Y695413D01*
X431825Y697213D01*
D25*
X431825Y697213D03*
X590138Y691000D03*
D21*
X827875Y415300D02*
X832700Y410475D01*
X827875Y415300D02*
X792300Y415300D01*
D25*
X832700Y410475D03*
D21*
X661988Y417513D02*
X658813Y414338D01*
X628650Y414338D01*
X628300Y414300D01*
D25*
X661988Y417513D03*
D21*
X845500Y415200D02*
X886700Y415200D01*
X845500Y415200D02*
X837575Y423125D01*
D25*
X837575Y423125D03*
D21*
X608363Y516988D02*
X607938Y517413D01*
D29*
X470013Y517413D01*
D21*
X468313Y519113D01*
D29*
X466350Y440988D02*
X458750Y433388D01*
X434975Y433388D01*
D21*
X433800Y432000D01*
D25*
X608363Y516988D03*
X468313Y519113D03*
X466350Y440988D03*
D29*
X752475Y601663D02*
X774700Y601663D01*
D21*
X752475Y601663D02*
X752290Y600850D01*
X774700Y601663D02*
X774800Y601500D01*
D29*
X774700Y600075D02*
X774700Y573088D01*
D21*
X773600Y571600D01*
X774700Y600075D02*
X774800Y601500D01*
D29*
X801688Y600075D02*
X822325Y600075D01*
D21*
X822910Y599350D01*
X801688Y600075D02*
X800200Y601500D01*
D29*
X800100Y600075D02*
X800100Y573088D01*
D21*
X799000Y571600D01*
X800100Y600075D02*
X800200Y601500D01*
D22*
X449263Y765175D02*
X433388Y781050D01*
X449263Y765175D02*
X654025Y765175D01*
D21*
X433388Y781050D02*
X433229Y781645D01*
D25*
X654025Y765175D03*
M02*
