G04 EAGLE Gerber RS-274X export*
G75*
%MOMM*%
%FSLAX34Y34*%
%LPD*%
%INBottom Copper*%
%IPPOS*%
%AMOC8*
5,1,8,0,0,1.08239X$1,22.5*%
G01*
%ADD10R,1.308000X1.308000*%
%ADD11R,2.000000X2.200000*%
%ADD12R,2.200000X2.000000*%
%ADD13R,1.500000X0.406400*%
%ADD14C,1.320800*%
%ADD15C,1.408000*%
%ADD16R,3.516000X3.516000*%
%ADD17R,1.508000X1.508000*%
%ADD18R,2.200000X5.000000*%
%ADD19R,1.143000X1.524000*%
%ADD20C,0.304800*%
%ADD21C,0.914400*%
%ADD22C,0.812800*%
%ADD23C,1.219200*%
%ADD24C,0.609600*%
%ADD25C,0.914400*%
%ADD26C,0.457200*%
%ADD27C,0.381000*%
%ADD28C,0.815341*%
%ADD29C,0.838200*%
%ADD30C,1.016000*%
%ADD31C,0.406400*%


D10*
X331629Y629245D03*
X357029Y629245D03*
X382429Y629245D03*
X407829Y629245D03*
X433229Y629245D03*
X458629Y629245D03*
X458629Y781645D03*
X433229Y781645D03*
X407829Y781645D03*
X382429Y781645D03*
X357029Y781645D03*
X331629Y781645D03*
X842907Y629991D03*
X868307Y629991D03*
X893707Y629991D03*
X919107Y629991D03*
X944507Y629991D03*
X969907Y629991D03*
X969907Y782391D03*
X944507Y782391D03*
X919107Y782391D03*
X893707Y782391D03*
X868307Y782391D03*
X842907Y782391D03*
D11*
X275000Y465000D03*
X275000Y430500D03*
D12*
X537000Y419000D03*
X571500Y419000D03*
X702500Y417500D03*
X737000Y417500D03*
X963000Y417000D03*
X928500Y417000D03*
X270400Y566150D03*
X235900Y566150D03*
D11*
X173250Y735800D03*
X173250Y701300D03*
D12*
X338000Y566150D03*
X372500Y566150D03*
D11*
X281400Y496850D03*
X281400Y531350D03*
D12*
X216700Y662150D03*
X251200Y662150D03*
D11*
X518500Y570000D03*
X518500Y535500D03*
D13*
X268678Y731725D03*
X268678Y725375D03*
X268678Y719025D03*
X268678Y712675D03*
X268678Y706325D03*
X268678Y699975D03*
X268678Y693625D03*
X268678Y687275D03*
X208322Y687275D03*
X208322Y693625D03*
X208322Y699975D03*
X208322Y706325D03*
X208322Y712675D03*
X208322Y719025D03*
X208322Y725375D03*
X208322Y731725D03*
D14*
X570400Y467004D02*
X570400Y453796D01*
X595800Y453796D02*
X595800Y467004D01*
X621200Y467004D02*
X621200Y453796D01*
X646600Y453796D02*
X646600Y467004D01*
X672000Y467004D02*
X672000Y453796D01*
X697400Y453796D02*
X697400Y467004D01*
X722800Y467004D02*
X722800Y453796D01*
X748200Y453796D02*
X748200Y467004D01*
X773600Y467004D02*
X773600Y453796D01*
X799000Y453796D02*
X799000Y467004D01*
X824400Y467004D02*
X824400Y453796D01*
X849800Y453796D02*
X849800Y467004D01*
X875200Y467004D02*
X875200Y453796D01*
X900600Y453796D02*
X900600Y467004D01*
X900600Y529996D02*
X900600Y543204D01*
X875200Y543204D02*
X875200Y529996D01*
X849800Y529996D02*
X849800Y543204D01*
X824400Y543204D02*
X824400Y529996D01*
X799000Y529996D02*
X799000Y543204D01*
X773600Y543204D02*
X773600Y529996D01*
X748200Y529996D02*
X748200Y543204D01*
X722800Y543204D02*
X722800Y529996D01*
X697400Y529996D02*
X697400Y543204D01*
X672000Y543204D02*
X672000Y529996D01*
X646600Y529996D02*
X646600Y543204D01*
X621200Y543204D02*
X621200Y529996D01*
X595800Y529996D02*
X595800Y543204D01*
X570400Y543204D02*
X570400Y529996D01*
X570400Y564996D02*
X570400Y578204D01*
X595800Y578204D02*
X595800Y564996D01*
X621200Y564996D02*
X621200Y578204D01*
X646600Y578204D02*
X646600Y564996D01*
X672000Y564996D02*
X672000Y578204D01*
X697400Y578204D02*
X697400Y564996D01*
X722800Y564996D02*
X722800Y578204D01*
X748200Y578204D02*
X748200Y564996D01*
X773600Y564996D02*
X773600Y578204D01*
X799000Y578204D02*
X799000Y564996D01*
X824400Y564996D02*
X824400Y578204D01*
X849800Y578204D02*
X849800Y564996D01*
X875200Y564996D02*
X875200Y578204D01*
X900600Y578204D02*
X900600Y564996D01*
X900600Y502004D02*
X900600Y488796D01*
X875200Y488796D02*
X875200Y502004D01*
X849800Y502004D02*
X849800Y488796D01*
X824400Y488796D02*
X824400Y502004D01*
X799000Y502004D02*
X799000Y488796D01*
X773600Y488796D02*
X773600Y502004D01*
X748200Y502004D02*
X748200Y488796D01*
X722800Y488796D02*
X722800Y502004D01*
X697400Y502004D02*
X697400Y488796D01*
X672000Y488796D02*
X672000Y502004D01*
X646600Y502004D02*
X646600Y488796D01*
X621200Y488796D02*
X621200Y502004D01*
X595800Y502004D02*
X595800Y488796D01*
X570400Y488796D02*
X570400Y502004D01*
D11*
X308000Y496500D03*
X308000Y531000D03*
D15*
X969900Y548900D03*
X969900Y523500D03*
X969900Y498100D03*
D11*
X259100Y632600D03*
X259100Y598100D03*
X518500Y498500D03*
X518500Y464000D03*
D12*
X438500Y593000D03*
X404000Y593000D03*
X964800Y577400D03*
X930300Y577400D03*
X937500Y461000D03*
X972000Y461000D03*
D11*
X477500Y465500D03*
X477500Y500000D03*
X477000Y571500D03*
X477000Y537000D03*
D12*
X609500Y418500D03*
X644000Y418500D03*
D11*
X344300Y748700D03*
X344300Y714200D03*
X506200Y775450D03*
X506200Y740950D03*
X701150Y773150D03*
X701150Y738650D03*
X651850Y733950D03*
X651850Y699450D03*
X750150Y703700D03*
X750150Y738200D03*
X799400Y774250D03*
X799400Y739750D03*
X559500Y733950D03*
X559500Y699450D03*
X608600Y773800D03*
X608600Y739300D03*
D12*
X779000Y417000D03*
X813500Y417000D03*
X894000Y417500D03*
X859500Y417500D03*
X201000Y772500D03*
X166500Y772500D03*
D11*
X179400Y659600D03*
X179400Y625100D03*
D12*
X339000Y592500D03*
X373500Y592500D03*
D11*
X294050Y620200D03*
X294050Y654700D03*
X424600Y521900D03*
X424600Y487400D03*
X395000Y522000D03*
X395000Y487500D03*
D16*
X173500Y561600D03*
X173500Y441200D03*
D17*
X200600Y513900D03*
X200600Y488900D03*
X220750Y513700D03*
X220800Y488850D03*
D18*
X353800Y427000D03*
X392800Y427000D03*
X433800Y427000D03*
D10*
X774800Y601500D03*
X800200Y601500D03*
D19*
X249256Y751420D03*
X229952Y751420D03*
X239604Y774280D03*
D20*
X962025Y417513D02*
X963000Y417000D01*
X703263Y417513D02*
X702500Y417500D01*
X519113Y569913D02*
X518500Y570000D01*
X395288Y522288D02*
X395000Y522000D01*
X207963Y712788D02*
X193675Y712788D01*
X207963Y712788D02*
X208322Y712675D01*
X517525Y571500D02*
X518500Y570000D01*
D21*
X171150Y753425D03*
X422013Y571350D03*
X501650Y571500D03*
X293138Y569025D03*
D22*
X501650Y571500D02*
X517525Y571500D01*
X519113Y569913D01*
D23*
X514550Y416850D03*
D24*
X722800Y495400D02*
X737300Y480900D01*
X737300Y468250D01*
D22*
X722800Y495400D02*
X722800Y536600D01*
D24*
X722800Y549150D01*
X748200Y564700D02*
X748200Y571600D01*
X725400Y551750D02*
X722800Y549150D01*
X725400Y551750D02*
X735250Y551750D01*
X748200Y564700D01*
X715013Y417513D02*
X703263Y417513D01*
X720920Y423420D02*
X720920Y429604D01*
X720920Y423420D02*
X715013Y417513D01*
X745150Y460400D02*
X737300Y468250D01*
X745150Y460400D02*
X748200Y460400D01*
X732716Y441400D02*
X720920Y429604D01*
X732716Y441400D02*
X741000Y441400D01*
X748200Y448600D01*
D21*
X975600Y440550D03*
D22*
X975600Y431088D01*
X962025Y417513D01*
D20*
X537000Y419000D02*
X535000Y417000D01*
X514700Y417000D01*
X514550Y416850D01*
D22*
X424600Y521900D02*
X395675Y521900D01*
X395288Y522288D01*
X422013Y524488D02*
X424600Y521900D01*
X422013Y524488D02*
X422013Y571350D01*
D21*
X331000Y548250D03*
D25*
X338000Y555250D01*
X338000Y566150D01*
X537000Y419000D02*
X540000Y422000D01*
X540000Y560950D01*
X529450Y571500D02*
X517525Y571500D01*
X529450Y571500D02*
X540000Y560950D01*
X748200Y460400D02*
X748200Y448600D01*
D21*
X296650Y701650D03*
X217100Y640650D03*
X258500Y495450D03*
D26*
X296650Y701650D02*
X291975Y706325D01*
D20*
X193675Y712788D02*
X188600Y717863D01*
X188600Y729200D01*
X171150Y737900D02*
X171150Y753425D01*
X171150Y737900D02*
X173250Y735800D01*
D27*
X182000Y735800D02*
X188600Y729200D01*
X182000Y735800D02*
X173250Y735800D01*
D20*
X268678Y706325D02*
X291975Y706325D01*
D21*
X297888Y598025D03*
D22*
X273275Y569025D02*
X270400Y566150D01*
X273275Y569025D02*
X293138Y569025D01*
X281400Y496850D02*
X275000Y490450D01*
D28*
X217100Y640650D02*
X217100Y661750D01*
X216700Y662150D01*
D22*
X294050Y620200D02*
X294050Y601863D01*
X297888Y598025D01*
X280000Y495450D02*
X258500Y495450D01*
X280000Y495450D02*
X281400Y496850D01*
X275000Y490450D02*
X275000Y465000D01*
D20*
X207963Y706438D02*
X174171Y706438D01*
X207963Y706438D02*
X208322Y706325D01*
X174171Y706438D02*
X173250Y701300D01*
D25*
X374650Y592138D02*
X403225Y592138D01*
D20*
X374650Y592138D02*
X373500Y592500D01*
X403225Y592138D02*
X404000Y593000D01*
D21*
X329088Y529938D03*
X501350Y476038D03*
X374650Y520700D03*
X456600Y418600D03*
D22*
X456600Y435651D01*
D25*
X309063Y529938D02*
X308000Y531000D01*
X329088Y529938D02*
X329088Y415390D01*
X320850Y407152D01*
X220348Y407152D01*
X215800Y411700D01*
X215800Y462300D02*
X208350Y469750D01*
X215800Y462300D02*
X215800Y411700D01*
X309063Y529938D02*
X329088Y529938D01*
X373500Y567150D02*
X373500Y592500D01*
X373500Y567150D02*
X372500Y566150D01*
X373500Y521850D02*
X374650Y520700D01*
X373500Y521850D02*
X373500Y567150D01*
D21*
X449950Y495500D03*
D29*
X451850Y440401D02*
X456600Y435651D01*
X451850Y493600D02*
X449950Y495500D01*
X451850Y493600D02*
X451850Y440401D01*
X501350Y476038D02*
X513388Y464000D01*
X518500Y464000D01*
D20*
X173250Y701300D02*
X165950Y708600D01*
D22*
X151000Y708600D01*
X151000Y763900D01*
X159600Y772500D01*
D20*
X166500Y772500D01*
D22*
X149144Y677194D02*
X149144Y598600D01*
X156444Y591300D01*
X207700Y591300D01*
X207700Y545650D01*
X195300Y533250D01*
X167750Y533250D01*
X149144Y677194D02*
X173250Y701300D01*
X167750Y533250D02*
X162100Y527600D01*
X162100Y473550D01*
X165900Y469750D01*
X208350Y469750D01*
D20*
X433800Y427000D02*
X434975Y427038D01*
D21*
X458225Y582775D03*
D27*
X424600Y487400D02*
X424600Y437413D01*
X434975Y427038D01*
D26*
X424600Y487400D02*
X424600Y493750D01*
X434300Y503450D01*
X438550Y503450D01*
X444150Y509050D01*
X444150Y569300D01*
X457625Y582775D01*
X458225Y582775D01*
D20*
X378619Y472281D02*
X354013Y447675D01*
X378619Y472281D02*
X393700Y487363D01*
X354013Y447675D02*
X354013Y427038D01*
X393700Y487363D02*
X395000Y487500D01*
X354013Y427038D02*
X353800Y427000D01*
X593725Y433388D02*
X620713Y460375D01*
X593725Y433388D02*
X552450Y433388D01*
X552450Y407988D01*
X549275Y404813D01*
X495600Y404813D01*
X495600Y463163D01*
X620713Y460375D02*
X621200Y460400D01*
X378619Y472281D02*
X377825Y473075D01*
D21*
X495600Y463163D03*
X377825Y473075D03*
D26*
X546100Y592138D02*
X569913Y592138D01*
D20*
X546100Y592138D02*
X540450Y592138D01*
D26*
X555350Y592138D01*
D20*
X540450Y592138D02*
X538750Y592138D01*
D26*
X439738Y592138D01*
X569913Y592138D02*
X569913Y573088D01*
D20*
X439738Y592138D02*
X438500Y593000D01*
X569913Y573088D02*
X570400Y571600D01*
D26*
X555350Y592138D02*
X555350Y474125D01*
D20*
X554000Y472775D01*
D21*
X554000Y472775D03*
D20*
X496600Y490538D02*
X495750Y490538D01*
X480081Y474869D01*
X477500Y465500D01*
X571500Y496888D02*
X571500Y536575D01*
X570400Y536600D01*
X571500Y496888D02*
X570400Y495400D01*
D21*
X496600Y490538D03*
D20*
X477000Y568588D02*
X477000Y571500D01*
X494213Y551375D02*
X495863Y551375D01*
X494213Y551375D02*
X477000Y568588D01*
X596900Y536575D02*
X596900Y496888D01*
X595800Y495400D01*
X596900Y536575D02*
X595800Y536600D01*
D21*
X495863Y551375D03*
X826813Y773113D03*
X774700Y742950D03*
D26*
X774700Y765400D01*
X783550Y774250D01*
X799400Y774250D01*
X800538Y773113D02*
X826813Y773113D01*
X800538Y773113D02*
X799400Y774250D01*
X480150Y776288D02*
X480150Y733775D01*
X480500Y733425D01*
D21*
X480500Y733425D03*
D26*
X480495Y781645D02*
X458629Y781645D01*
X480495Y781645D02*
X480600Y781750D01*
X480600Y776738D01*
X480150Y776288D01*
X481888Y775450D02*
X506200Y775450D01*
X481888Y775450D02*
X480600Y776738D01*
X919988Y691425D02*
X919988Y630872D01*
D20*
X919107Y629991D01*
X560388Y733425D02*
X559500Y733950D01*
D21*
X919988Y691425D03*
X576663Y717950D03*
D30*
X413500Y721600D03*
D26*
X407829Y715929D02*
X407829Y629245D01*
X407829Y715929D02*
X413500Y721600D01*
X575863Y717950D02*
X576663Y717950D01*
X575863Y717950D02*
X560388Y733425D01*
D21*
X535000Y656200D03*
D26*
X534750Y773800D02*
X608600Y773800D01*
X534750Y773800D02*
X534650Y773900D01*
X534650Y656550D01*
X535000Y656200D01*
X701150Y773150D02*
X719900Y754400D01*
X719900Y754000D01*
X719900Y723850D01*
X719050Y723000D01*
X710250Y714200D01*
X705750Y714200D01*
D21*
X707000Y669050D03*
D26*
X705750Y670300D01*
X705750Y714200D01*
D21*
X736200Y635850D03*
D26*
X736200Y640750D02*
X707900Y669050D01*
X707000Y669050D01*
X736200Y640750D02*
X736200Y635850D01*
D20*
X652463Y735013D02*
X663575Y746125D01*
X663575Y752475D01*
X652463Y735013D02*
X651850Y733950D01*
D21*
X663575Y752475D03*
D26*
X755018Y700813D02*
X795113Y700813D01*
D20*
X755018Y700813D02*
X750150Y703700D01*
D21*
X795113Y700813D03*
X433575Y679225D03*
X944850Y677050D03*
D26*
X944507Y676707D02*
X944507Y629991D01*
X944507Y676707D02*
X944850Y677050D01*
X433229Y678879D02*
X433229Y629245D01*
X433229Y678879D02*
X433575Y679225D01*
D21*
X869100Y722800D03*
D27*
X807650Y722800D01*
X799400Y731050D02*
X799400Y739750D01*
X799400Y731050D02*
X807650Y722800D01*
D20*
X514350Y731838D02*
X506413Y739775D01*
D26*
X514350Y731838D02*
X514350Y648600D01*
D20*
X506413Y739775D02*
X506200Y740950D01*
D26*
X514350Y648600D02*
X519450Y643500D01*
X646600Y614850D02*
X646600Y571600D01*
X646600Y614850D02*
X617950Y643500D01*
X519450Y643500D01*
D21*
X673488Y622963D03*
D26*
X672000Y621475D02*
X672000Y571600D01*
D27*
X672000Y621475D02*
X673488Y622963D01*
D21*
X645100Y638950D03*
D26*
X642500Y638950D01*
X607800Y673650D02*
X577550Y673650D01*
X559500Y691700D01*
X559500Y699450D01*
X607800Y673650D02*
X642500Y638950D01*
X697400Y616650D02*
X697400Y571600D01*
X697400Y616650D02*
X697750Y617000D01*
X671050Y643700D02*
X671050Y657650D01*
X645300Y683400D01*
X635050Y683400D01*
X671050Y643700D02*
X697750Y617000D01*
X608600Y709850D02*
X608600Y739300D01*
X608600Y709850D02*
X635050Y683400D01*
D27*
X693750Y738650D02*
X701150Y738650D01*
D26*
X824400Y571600D02*
X811250Y558450D01*
X811250Y515000D02*
X760450Y515000D01*
X760450Y612100D01*
X747790Y624760D01*
X733468Y624760D01*
X701878Y656350D02*
X693750Y656350D01*
X701878Y656350D02*
X733468Y624760D01*
X693750Y656350D02*
X693750Y738650D01*
X811250Y558450D02*
X811250Y515000D01*
X665513Y699450D02*
X651850Y699450D01*
X665513Y699450D02*
X671663Y693300D01*
X774075Y691200D02*
X803925Y691200D01*
D20*
X774075Y691200D02*
X772825Y689950D01*
X867250Y589050D02*
X849800Y571600D01*
D21*
X671663Y693300D03*
X772825Y689950D03*
D26*
X868250Y590050D02*
X867250Y589050D01*
X868250Y590050D02*
X868250Y613500D01*
X866600Y615150D01*
X857250Y615150D01*
X856000Y616400D01*
X856000Y667750D01*
X832550Y691200D01*
X803925Y691200D01*
X776100Y712250D02*
X750150Y738200D01*
X880950Y577350D02*
X875200Y571600D01*
X855500Y712250D02*
X776100Y712250D01*
X855500Y712250D02*
X880950Y686800D01*
X880950Y577350D01*
D24*
X906627Y711471D02*
X842907Y775191D01*
X842907Y782391D01*
X900600Y592000D02*
X900600Y571600D01*
X906627Y652073D02*
X906627Y711471D01*
D26*
X900600Y617697D02*
X900600Y592000D01*
X906627Y623724D02*
X906627Y652073D01*
X906627Y623724D02*
X900600Y617697D01*
D24*
X875200Y513650D02*
X875200Y495400D01*
X879000Y517450D02*
X920700Y517450D01*
X947030Y597154D02*
X931950Y612234D01*
X947030Y543780D02*
X920700Y517450D01*
X947030Y543780D02*
X947030Y597154D01*
X931950Y769548D02*
X919107Y782391D01*
X879000Y517450D02*
X875200Y513650D01*
X931950Y612234D02*
X931950Y769548D01*
X944563Y781050D02*
X957375Y768238D01*
X957375Y601200D01*
X958400Y600275D01*
D20*
X944563Y781050D02*
X944507Y782391D01*
D21*
X958400Y600275D03*
X845800Y657700D03*
D24*
X824400Y541550D02*
X824400Y536600D01*
X824400Y541550D02*
X836950Y554100D01*
X836950Y587650D01*
X825550Y599050D02*
X815400Y599050D01*
X815400Y638500D01*
X835200Y658300D01*
X845200Y658300D02*
X845800Y657700D01*
X845200Y658300D02*
X835200Y658300D01*
X825550Y599050D02*
X836950Y587650D01*
D21*
X716300Y706200D03*
D24*
X787350Y548250D02*
X799000Y536600D01*
X787350Y560122D02*
X787316Y560156D01*
X787316Y618734D01*
X716300Y689750D02*
X716300Y706200D01*
X787350Y560122D02*
X787350Y548250D01*
X787316Y618734D02*
X716300Y689750D01*
X610388Y691350D02*
X590488Y691350D01*
X590138Y691000D01*
D21*
X431825Y697213D03*
X590138Y691000D03*
D24*
X431825Y757649D02*
X407829Y781645D01*
X431825Y757649D02*
X431825Y697213D01*
X659266Y447206D02*
X666460Y440012D01*
X679690Y440012D01*
X684384Y444706D01*
X684384Y478134D01*
X697400Y491150D02*
X697400Y495400D01*
X697400Y491150D02*
X684384Y478134D01*
X659266Y447206D02*
X659266Y642472D01*
X610388Y691350D01*
X635350Y506650D02*
X646600Y495400D01*
X635350Y524722D02*
X634916Y525156D01*
X634916Y583084D01*
X460734Y631350D02*
X458629Y629245D01*
X635350Y524722D02*
X635350Y506650D01*
X634916Y583084D02*
X586650Y631350D01*
X460734Y631350D01*
D20*
X207963Y693738D02*
X207963Y698500D01*
X207963Y693738D02*
X208322Y693625D01*
X207963Y698500D02*
X208322Y699975D01*
X209550Y693738D02*
X249238Y693738D01*
X209550Y693738D02*
X208322Y693625D01*
X286288Y727613D02*
X286288Y752475D01*
D27*
X323850Y714375D02*
X342900Y714375D01*
X323850Y714375D02*
X317500Y720725D01*
X286550Y720725D01*
D20*
X342900Y714375D02*
X344300Y714200D01*
X249238Y714375D02*
X249238Y693738D01*
X249238Y714375D02*
X254000Y719138D01*
X268288Y719138D01*
X268678Y719025D01*
D27*
X283278Y720725D02*
X286550Y720725D01*
X286288Y720988D02*
X286288Y727613D01*
X286288Y720988D02*
X286550Y720725D01*
X268759Y719106D02*
X268678Y719025D01*
X268759Y719106D02*
X281659Y719106D01*
X283278Y720725D01*
D20*
X285233Y751420D02*
X249256Y751420D01*
X285233Y751420D02*
X286288Y752475D01*
D31*
X249238Y693738D02*
X249238Y683563D01*
X251200Y681600D01*
X251200Y662150D01*
X200650Y678350D02*
X189450Y678350D01*
X200650Y678350D02*
X208322Y686022D01*
X208322Y687275D01*
X179400Y668300D02*
X179400Y659600D01*
X179400Y668300D02*
X189450Y678350D01*
X259100Y639050D02*
X259100Y632600D01*
X259100Y639050D02*
X272450Y652400D01*
X272450Y683503D01*
X268678Y687275D01*
D20*
X280950Y532663D02*
X281400Y531350D01*
X180275Y625975D02*
X179400Y625100D01*
D31*
X305550Y575650D02*
X305550Y561700D01*
X265550Y513700D02*
X220750Y513700D01*
X280950Y529100D02*
X280950Y532663D01*
X281400Y531350D02*
X290400Y540350D01*
X201800Y615550D02*
X201800Y619450D01*
X195275Y625975D01*
X276400Y615500D02*
X276400Y604800D01*
X276400Y615500D02*
X276350Y615550D01*
X201800Y615550D01*
X276400Y604800D02*
X305550Y575650D01*
X195275Y625975D02*
X180275Y625975D01*
X290400Y546550D02*
X290400Y540350D01*
X280950Y529100D02*
X265550Y513700D01*
X290400Y546550D02*
X305550Y561700D01*
X200600Y519100D02*
X200600Y513900D01*
X213900Y532400D02*
X220650Y532400D01*
X235900Y547650D01*
X213900Y532400D02*
X200600Y519100D01*
X259100Y589350D02*
X259100Y598100D01*
X259100Y589350D02*
X235900Y566150D01*
X235900Y547650D01*
D22*
X239950Y472350D02*
X239950Y434950D01*
X223450Y488850D02*
X220800Y488850D01*
X294300Y434350D02*
X308000Y448050D01*
X239950Y472350D02*
X223450Y488850D01*
X272150Y437250D02*
X275050Y434350D01*
X272150Y433350D02*
X272150Y437250D01*
X272150Y433350D02*
X275000Y430500D01*
X244400Y430500D02*
X239950Y434950D01*
X244400Y430500D02*
X275000Y430500D01*
X275050Y434350D02*
X294300Y434350D01*
X308000Y448050D02*
X308000Y496500D01*
D31*
X294050Y654700D02*
X294050Y692037D01*
X289913Y692037D01*
X281975Y699975D01*
X268678Y699975D01*
D20*
X392800Y427000D02*
X393700Y427038D01*
D26*
X355082Y510568D02*
X355082Y579318D01*
X355082Y510568D02*
X360600Y505050D01*
X409882Y505050D01*
X409882Y443220D02*
X393700Y427038D01*
D20*
X409882Y443220D02*
X409882Y505050D01*
D31*
X302625Y712675D02*
X268678Y712675D01*
D26*
X302625Y712675D02*
X311950Y703350D01*
X313000Y592500D02*
X339000Y592500D01*
X313000Y592500D02*
X311950Y593550D01*
X341900Y592500D02*
X355082Y579318D01*
X341900Y592500D02*
X339000Y592500D01*
D31*
X311950Y593550D02*
X311950Y703350D01*
D26*
X397750Y617500D02*
X569250Y617500D01*
X397750Y617500D02*
X395400Y619850D01*
X395400Y724200D01*
X387450Y732150D01*
X297900Y732150D01*
X297900Y755700D01*
X569250Y617500D02*
X591250Y595500D01*
X591250Y576150D02*
X595800Y571600D01*
X591250Y576150D02*
X591250Y595500D01*
X591650Y571600D02*
X595800Y571600D01*
X591650Y571600D02*
X582400Y562350D01*
X582400Y470700D01*
X592700Y460400D02*
X595800Y460400D01*
X592700Y460400D02*
X582400Y470700D01*
X297900Y755700D02*
X297900Y773200D01*
X296820Y774280D02*
X239604Y774280D01*
D20*
X296820Y774280D02*
X297900Y773200D01*
X239604Y774280D02*
X237824Y772500D01*
D26*
X201000Y772500D01*
D20*
X268288Y731838D02*
X268678Y731725D01*
X303400Y788800D02*
X342900Y749300D01*
X303400Y788800D02*
X185738Y788800D01*
X185738Y760413D01*
X342900Y749300D02*
X344300Y748700D01*
D27*
X268288Y731838D02*
X233863Y731838D01*
D20*
X200217Y747903D02*
X198247Y747903D01*
X185738Y760413D01*
X203734Y751420D02*
X229952Y751420D01*
X229952Y735748D02*
X233863Y731838D01*
X229952Y735748D02*
X229952Y751420D01*
D31*
X203734Y751420D02*
X200217Y747903D01*
D20*
X813500Y417000D02*
X820025Y410475D01*
X832700Y410475D01*
D21*
X832700Y410475D03*
D20*
X661988Y417513D02*
X644525Y417513D01*
X644000Y418500D01*
D21*
X661988Y417513D03*
D20*
X895350Y417513D02*
X927100Y417513D01*
X895350Y417513D02*
X894000Y417500D01*
X927100Y417513D02*
X928500Y417000D01*
X893763Y442913D02*
X876300Y460375D01*
X893763Y442913D02*
X893763Y417513D01*
X876300Y460375D02*
X875200Y460400D01*
X893763Y417513D02*
X894000Y417500D01*
D24*
X969900Y572300D02*
X964800Y577400D01*
X969900Y572300D02*
X969900Y548900D01*
D20*
X969963Y463550D02*
X971550Y461963D01*
D24*
X969963Y463550D02*
X969963Y496888D01*
D20*
X971550Y461963D02*
X972000Y461000D01*
X969963Y496888D02*
X969900Y498100D01*
X859500Y417500D02*
X853875Y423125D01*
X837575Y423125D01*
D21*
X837575Y423125D03*
D20*
X608013Y419100D02*
X571500Y419100D01*
X571500Y419000D01*
X608013Y419100D02*
X609500Y418500D01*
X608013Y422275D02*
X646113Y460375D01*
X608013Y422275D02*
X608013Y420688D01*
X646113Y460375D02*
X646600Y460400D01*
X608013Y420688D02*
X609500Y418500D01*
X738188Y417513D02*
X777875Y417513D01*
X779000Y417000D01*
X738188Y417513D02*
X737000Y417500D01*
X777875Y457200D02*
X774700Y460375D01*
X777875Y457200D02*
X777875Y419100D01*
X774700Y460375D02*
X773600Y460400D01*
X777875Y419100D02*
X779000Y417000D01*
D26*
X519113Y500063D02*
X519113Y534988D01*
D20*
X519113Y500063D02*
X518500Y498500D01*
X519113Y534988D02*
X518500Y535500D01*
X477838Y536575D02*
X477838Y500063D01*
X477500Y500000D01*
X477838Y536575D02*
X477000Y537000D01*
D26*
X479425Y536575D02*
X517525Y536575D01*
D20*
X518500Y535500D01*
X479425Y536575D02*
X477000Y537000D01*
D26*
X608363Y509238D02*
X620713Y496888D01*
X608363Y509238D02*
X608363Y516988D01*
X468313Y519113D02*
X461750Y512550D01*
X461750Y445588D01*
X466350Y440988D01*
D20*
X621200Y495400D02*
X620713Y496888D01*
D21*
X608363Y516988D03*
X468313Y519113D03*
X466350Y440988D03*
D20*
X929488Y576688D02*
X930300Y577400D01*
D24*
X909550Y545550D02*
X900600Y536600D01*
X909550Y545550D02*
X922550Y545550D01*
X929488Y552488D01*
X929488Y576688D01*
X936625Y460375D02*
X901700Y460375D01*
D20*
X936625Y460375D02*
X937500Y461000D01*
X901700Y460375D02*
X900600Y460400D01*
D21*
X654025Y765175D03*
D24*
X672000Y501400D02*
X672000Y495400D01*
X687550Y516950D02*
X709400Y516950D01*
X710100Y517650D01*
X681900Y757100D02*
X673800Y765200D01*
X654050Y765200D02*
X654025Y765175D01*
X687550Y516950D02*
X672000Y501400D01*
X710100Y517650D02*
X710100Y617350D01*
X681900Y645550D01*
X681900Y757100D01*
X673800Y765200D02*
X654050Y765200D01*
M02*
