G04 EAGLE Gerber RS-274X export*
G75*
%MOMM*%
%FSLAX34Y34*%
%LPD*%
%INSilkscreen Top*%
%IPPOS*%
%AMOC8*
5,1,8,0,0,1.08239X$1,22.5*%
G01*
%ADD10C,0.127000*%
%ADD11C,0.101600*%
%ADD12C,0.152400*%
%ADD13C,0.177800*%


D10*
X141129Y800695D02*
X649129Y800695D01*
X649129Y610195D01*
X141129Y610195D01*
X141129Y800695D01*
D11*
X230537Y793847D02*
X238333Y793847D01*
X238333Y791898D01*
X230537Y784102D01*
X230537Y782153D01*
X242231Y780204D02*
X250027Y780204D01*
X261721Y791898D02*
X259772Y793847D01*
X255874Y793847D01*
X253925Y791898D01*
X253925Y789949D01*
X255874Y788000D01*
X259772Y788000D01*
X261721Y786051D01*
X261721Y784102D01*
X259772Y782153D01*
X255874Y782153D01*
X253925Y784102D01*
X265619Y793847D02*
X273415Y793847D01*
X265619Y793847D02*
X265619Y782153D01*
X273415Y782153D01*
X269517Y788000D02*
X265619Y788000D01*
X283160Y793847D02*
X285109Y791898D01*
X283160Y793847D02*
X279262Y793847D01*
X277313Y791898D01*
X277313Y784102D01*
X279262Y782153D01*
X283160Y782153D01*
X285109Y784102D01*
X285109Y788000D01*
X281211Y788000D01*
X289007Y789949D02*
X292905Y793847D01*
X292905Y782153D01*
X289007Y782153D02*
X296803Y782153D01*
X490384Y641447D02*
X490384Y629753D01*
X484537Y635600D02*
X490384Y641447D01*
X492333Y635600D02*
X484537Y635600D01*
X496231Y627804D02*
X504027Y627804D01*
X507925Y629753D02*
X507925Y641447D01*
X507925Y629753D02*
X513772Y629753D01*
X515721Y631702D01*
X515721Y639498D01*
X513772Y641447D01*
X507925Y641447D01*
X519619Y629753D02*
X523517Y629753D01*
X521568Y629753D02*
X521568Y641447D01*
X519619Y641447D02*
X523517Y641447D01*
X533262Y641447D02*
X535211Y639498D01*
X533262Y641447D02*
X529364Y641447D01*
X527415Y639498D01*
X527415Y631702D01*
X529364Y629753D01*
X533262Y629753D01*
X535211Y631702D01*
X535211Y635600D01*
X531313Y635600D01*
X539109Y629753D02*
X543007Y629753D01*
X541058Y629753D02*
X541058Y641447D01*
X539109Y641447D02*
X543007Y641447D01*
X550803Y641447D02*
X550803Y629753D01*
X546905Y641447D02*
X554701Y641447D01*
X558599Y627804D02*
X566395Y627804D01*
X570293Y641447D02*
X578089Y641447D01*
X578089Y639498D01*
X570293Y631702D01*
X570293Y629753D01*
X587834Y641447D02*
X589783Y639498D01*
X587834Y641447D02*
X583936Y641447D01*
X581987Y639498D01*
X581987Y637549D01*
X583936Y635600D01*
X587834Y635600D01*
X589783Y633651D01*
X589783Y631702D01*
X587834Y629753D01*
X583936Y629753D01*
X581987Y631702D01*
X593681Y641447D02*
X601477Y641447D01*
X593681Y641447D02*
X593681Y629753D01*
X601477Y629753D01*
X597579Y635600D02*
X593681Y635600D01*
X611222Y641447D02*
X613171Y639498D01*
X611222Y641447D02*
X607324Y641447D01*
X605375Y639498D01*
X605375Y631702D01*
X607324Y629753D01*
X611222Y629753D01*
X613171Y631702D01*
X613171Y635600D01*
X609273Y635600D01*
X617069Y629753D02*
X617069Y641447D01*
X620967Y637549D01*
X624865Y641447D01*
X624865Y629753D01*
X628763Y641447D02*
X636559Y641447D01*
X628763Y641447D02*
X628763Y629753D01*
X636559Y629753D01*
X632661Y635600D02*
X628763Y635600D01*
X640457Y629753D02*
X640457Y641447D01*
X648253Y629753D01*
X648253Y641447D01*
X656049Y641447D02*
X656049Y629753D01*
X652151Y641447D02*
X659947Y641447D01*
X663845Y627804D02*
X671640Y627804D01*
X675538Y629753D02*
X675538Y641447D01*
X675538Y629753D02*
X681385Y629753D01*
X683334Y631702D01*
X683334Y639498D01*
X681385Y641447D01*
X675538Y641447D01*
X687232Y629753D02*
X691130Y629753D01*
X689181Y629753D02*
X689181Y641447D01*
X687232Y641447D02*
X691130Y641447D01*
X700875Y641447D02*
X702824Y639498D01*
X700875Y641447D02*
X696977Y641447D01*
X695028Y639498D01*
X695028Y637549D01*
X696977Y635600D01*
X700875Y635600D01*
X702824Y633651D01*
X702824Y631702D01*
X700875Y629753D01*
X696977Y629753D01*
X695028Y631702D01*
X706722Y629753D02*
X706722Y641447D01*
X712569Y641447D01*
X714518Y639498D01*
X714518Y635600D01*
X712569Y633651D01*
X706722Y633651D01*
X718416Y629753D02*
X718416Y641447D01*
X718416Y629753D02*
X726212Y629753D01*
X730110Y629753D02*
X730110Y637549D01*
X734008Y641447D01*
X737906Y637549D01*
X737906Y629753D01*
X737906Y635600D02*
X730110Y635600D01*
X741804Y639498D02*
X741804Y641447D01*
X741804Y639498D02*
X745702Y635600D01*
X749600Y639498D01*
X749600Y641447D01*
X745702Y635600D02*
X745702Y629753D01*
D10*
X652407Y801441D02*
X1160407Y801441D01*
X1160407Y610941D01*
X652407Y610941D01*
X652407Y801441D01*
D11*
X741815Y794593D02*
X749611Y794593D01*
X749611Y792644D01*
X741815Y784848D01*
X741815Y782899D01*
X753509Y780950D02*
X761305Y780950D01*
X772999Y792644D02*
X771050Y794593D01*
X767152Y794593D01*
X765203Y792644D01*
X765203Y790695D01*
X767152Y788746D01*
X771050Y788746D01*
X772999Y786797D01*
X772999Y784848D01*
X771050Y782899D01*
X767152Y782899D01*
X765203Y784848D01*
X776897Y794593D02*
X784693Y794593D01*
X776897Y794593D02*
X776897Y782899D01*
X784693Y782899D01*
X780795Y788746D02*
X776897Y788746D01*
X794438Y794593D02*
X796387Y792644D01*
X794438Y794593D02*
X790540Y794593D01*
X788591Y792644D01*
X788591Y784848D01*
X790540Y782899D01*
X794438Y782899D01*
X796387Y784848D01*
X796387Y788746D01*
X792489Y788746D01*
X800285Y782899D02*
X808081Y782899D01*
X800285Y782899D02*
X808081Y790695D01*
X808081Y792644D01*
X806132Y794593D01*
X802234Y794593D01*
X800285Y792644D01*
X1001662Y642193D02*
X1001662Y630499D01*
X995815Y636346D02*
X1001662Y642193D01*
X1003611Y636346D02*
X995815Y636346D01*
X1007509Y628550D02*
X1015305Y628550D01*
X1019203Y630499D02*
X1019203Y642193D01*
X1019203Y630499D02*
X1025050Y630499D01*
X1026999Y632448D01*
X1026999Y640244D01*
X1025050Y642193D01*
X1019203Y642193D01*
X1030897Y630499D02*
X1034795Y630499D01*
X1032846Y630499D02*
X1032846Y642193D01*
X1030897Y642193D02*
X1034795Y642193D01*
X1044540Y642193D02*
X1046489Y640244D01*
X1044540Y642193D02*
X1040642Y642193D01*
X1038693Y640244D01*
X1038693Y632448D01*
X1040642Y630499D01*
X1044540Y630499D01*
X1046489Y632448D01*
X1046489Y636346D01*
X1042591Y636346D01*
X1050387Y630499D02*
X1054285Y630499D01*
X1052336Y630499D02*
X1052336Y642193D01*
X1050387Y642193D02*
X1054285Y642193D01*
X1062081Y642193D02*
X1062081Y630499D01*
X1058183Y642193D02*
X1065979Y642193D01*
X1069877Y628550D02*
X1077673Y628550D01*
X1081571Y642193D02*
X1089367Y642193D01*
X1089367Y640244D01*
X1081571Y632448D01*
X1081571Y630499D01*
X1099112Y642193D02*
X1101061Y640244D01*
X1099112Y642193D02*
X1095214Y642193D01*
X1093265Y640244D01*
X1093265Y638295D01*
X1095214Y636346D01*
X1099112Y636346D01*
X1101061Y634397D01*
X1101061Y632448D01*
X1099112Y630499D01*
X1095214Y630499D01*
X1093265Y632448D01*
X1104959Y642193D02*
X1112755Y642193D01*
X1104959Y642193D02*
X1104959Y630499D01*
X1112755Y630499D01*
X1108857Y636346D02*
X1104959Y636346D01*
X1122500Y642193D02*
X1124449Y640244D01*
X1122500Y642193D02*
X1118602Y642193D01*
X1116653Y640244D01*
X1116653Y632448D01*
X1118602Y630499D01*
X1122500Y630499D01*
X1124449Y632448D01*
X1124449Y636346D01*
X1120551Y636346D01*
X1128347Y630499D02*
X1128347Y642193D01*
X1132245Y638295D01*
X1136143Y642193D01*
X1136143Y630499D01*
X1140041Y642193D02*
X1147837Y642193D01*
X1140041Y642193D02*
X1140041Y630499D01*
X1147837Y630499D01*
X1143939Y636346D02*
X1140041Y636346D01*
X1151735Y630499D02*
X1151735Y642193D01*
X1159531Y630499D01*
X1159531Y642193D01*
X1167327Y642193D02*
X1167327Y630499D01*
X1163429Y642193D02*
X1171225Y642193D01*
X1175123Y628550D02*
X1182918Y628550D01*
X1186816Y630499D02*
X1186816Y642193D01*
X1186816Y630499D02*
X1192663Y630499D01*
X1194612Y632448D01*
X1194612Y640244D01*
X1192663Y642193D01*
X1186816Y642193D01*
X1198510Y630499D02*
X1202408Y630499D01*
X1200459Y630499D02*
X1200459Y642193D01*
X1198510Y642193D02*
X1202408Y642193D01*
X1212153Y642193D02*
X1214102Y640244D01*
X1212153Y642193D02*
X1208255Y642193D01*
X1206306Y640244D01*
X1206306Y638295D01*
X1208255Y636346D01*
X1212153Y636346D01*
X1214102Y634397D01*
X1214102Y632448D01*
X1212153Y630499D01*
X1208255Y630499D01*
X1206306Y632448D01*
X1218000Y630499D02*
X1218000Y642193D01*
X1223847Y642193D01*
X1225796Y640244D01*
X1225796Y636346D01*
X1223847Y634397D01*
X1218000Y634397D01*
X1229694Y630499D02*
X1229694Y642193D01*
X1229694Y630499D02*
X1237490Y630499D01*
X1241388Y630499D02*
X1241388Y638295D01*
X1245286Y642193D01*
X1249184Y638295D01*
X1249184Y630499D01*
X1249184Y636346D02*
X1241388Y636346D01*
X1253082Y640244D02*
X1253082Y642193D01*
X1253082Y640244D02*
X1256980Y636346D01*
X1260878Y640244D01*
X1260878Y642193D01*
X1256980Y636346D02*
X1256980Y630499D01*
D12*
X550080Y492150D02*
X550080Y470560D01*
X550080Y492150D02*
X550238Y492152D01*
X550397Y492158D01*
X550555Y492168D01*
X550712Y492182D01*
X550870Y492199D01*
X551026Y492221D01*
X551183Y492246D01*
X551338Y492276D01*
X551493Y492309D01*
X551647Y492346D01*
X551800Y492387D01*
X551952Y492432D01*
X552102Y492481D01*
X552252Y492533D01*
X552400Y492589D01*
X552547Y492649D01*
X552692Y492712D01*
X552835Y492779D01*
X552977Y492849D01*
X553117Y492923D01*
X553255Y493001D01*
X553391Y493082D01*
X553525Y493166D01*
X553657Y493253D01*
X553787Y493344D01*
X553914Y493438D01*
X554039Y493535D01*
X554162Y493636D01*
X554282Y493739D01*
X554399Y493845D01*
X554514Y493954D01*
X554626Y494066D01*
X554735Y494181D01*
X554841Y494298D01*
X554944Y494418D01*
X555045Y494541D01*
X555142Y494666D01*
X555236Y494793D01*
X555327Y494923D01*
X555414Y495055D01*
X555498Y495189D01*
X555579Y495325D01*
X555657Y495463D01*
X555731Y495603D01*
X555801Y495745D01*
X555868Y495888D01*
X555931Y496033D01*
X555991Y496180D01*
X556047Y496328D01*
X556099Y496478D01*
X556148Y496628D01*
X556193Y496780D01*
X556234Y496933D01*
X556271Y497087D01*
X556304Y497242D01*
X556334Y497397D01*
X556359Y497554D01*
X556381Y497710D01*
X556398Y497868D01*
X556412Y498025D01*
X556422Y498183D01*
X556428Y498342D01*
X556430Y498500D01*
X556428Y498658D01*
X556422Y498817D01*
X556412Y498975D01*
X556398Y499132D01*
X556381Y499290D01*
X556359Y499446D01*
X556334Y499603D01*
X556304Y499758D01*
X556271Y499913D01*
X556234Y500067D01*
X556193Y500220D01*
X556148Y500372D01*
X556099Y500522D01*
X556047Y500672D01*
X555991Y500820D01*
X555931Y500967D01*
X555868Y501112D01*
X555801Y501255D01*
X555731Y501397D01*
X555657Y501537D01*
X555579Y501675D01*
X555498Y501811D01*
X555414Y501945D01*
X555327Y502077D01*
X555236Y502207D01*
X555142Y502334D01*
X555045Y502459D01*
X554944Y502582D01*
X554841Y502702D01*
X554735Y502819D01*
X554626Y502934D01*
X554514Y503046D01*
X554399Y503155D01*
X554282Y503261D01*
X554162Y503364D01*
X554039Y503465D01*
X553914Y503562D01*
X553787Y503656D01*
X553657Y503747D01*
X553525Y503834D01*
X553391Y503918D01*
X553255Y503999D01*
X553117Y504077D01*
X552977Y504151D01*
X552835Y504221D01*
X552692Y504288D01*
X552547Y504351D01*
X552400Y504411D01*
X552252Y504467D01*
X552102Y504519D01*
X551952Y504568D01*
X551800Y504613D01*
X551647Y504654D01*
X551493Y504691D01*
X551338Y504724D01*
X551183Y504754D01*
X551026Y504779D01*
X550870Y504801D01*
X550712Y504818D01*
X550555Y504832D01*
X550397Y504842D01*
X550238Y504848D01*
X550080Y504850D01*
X550080Y470560D02*
X920920Y470560D01*
X550080Y504850D02*
X550080Y526440D01*
X920920Y526440D01*
X920920Y470560D01*
D13*
X542587Y473989D02*
X542587Y479328D01*
X542587Y476658D02*
X526571Y476658D01*
X526571Y473989D02*
X526571Y479328D01*
X526571Y492911D02*
X529241Y495581D01*
X526571Y492911D02*
X526571Y487573D01*
X529241Y484903D01*
X539918Y484903D01*
X542587Y487573D01*
X542587Y492911D01*
X539918Y495581D01*
X542587Y501275D02*
X542587Y511952D01*
X542587Y501275D02*
X531910Y511952D01*
X529241Y511952D01*
X526571Y509283D01*
X526571Y503944D01*
X529241Y501275D01*
D10*
X938150Y523500D02*
X938160Y524279D01*
X938188Y525058D01*
X938236Y525836D01*
X938303Y526612D01*
X938389Y527387D01*
X938494Y528159D01*
X938617Y528928D01*
X938760Y529694D01*
X938921Y530456D01*
X939102Y531215D01*
X939300Y531968D01*
X939517Y532717D01*
X939752Y533459D01*
X940006Y534196D01*
X940277Y534927D01*
X940567Y535650D01*
X940874Y536366D01*
X941198Y537075D01*
X941540Y537775D01*
X941899Y538467D01*
X942275Y539150D01*
X942667Y539823D01*
X943076Y540486D01*
X943501Y541139D01*
X943942Y541782D01*
X944398Y542413D01*
X944870Y543034D01*
X945357Y543642D01*
X945859Y544238D01*
X946375Y544822D01*
X946905Y545393D01*
X947449Y545951D01*
X948007Y546495D01*
X948578Y547025D01*
X949162Y547541D01*
X949758Y548043D01*
X950366Y548530D01*
X950987Y549002D01*
X951618Y549458D01*
X952261Y549899D01*
X952914Y550324D01*
X953577Y550733D01*
X954250Y551125D01*
X954933Y551501D01*
X955625Y551860D01*
X956325Y552202D01*
X957034Y552526D01*
X957750Y552833D01*
X958473Y553123D01*
X959204Y553394D01*
X959941Y553648D01*
X960683Y553883D01*
X961432Y554100D01*
X962185Y554298D01*
X962944Y554479D01*
X963706Y554640D01*
X964472Y554783D01*
X965241Y554906D01*
X966013Y555011D01*
X966788Y555097D01*
X967564Y555164D01*
X968342Y555212D01*
X969121Y555240D01*
X969900Y555250D01*
X970679Y555240D01*
X971458Y555212D01*
X972236Y555164D01*
X973012Y555097D01*
X973787Y555011D01*
X974559Y554906D01*
X975328Y554783D01*
X976094Y554640D01*
X976856Y554479D01*
X977615Y554298D01*
X978368Y554100D01*
X979117Y553883D01*
X979859Y553648D01*
X980596Y553394D01*
X981327Y553123D01*
X982050Y552833D01*
X982766Y552526D01*
X983475Y552202D01*
X984175Y551860D01*
X984867Y551501D01*
X985550Y551125D01*
X986223Y550733D01*
X986886Y550324D01*
X987539Y549899D01*
X988182Y549458D01*
X988813Y549002D01*
X989434Y548530D01*
X990042Y548043D01*
X990638Y547541D01*
X991222Y547025D01*
X991793Y546495D01*
X992351Y545951D01*
X992895Y545393D01*
X993425Y544822D01*
X993941Y544238D01*
X994443Y543642D01*
X994930Y543034D01*
X995402Y542413D01*
X995858Y541782D01*
X996299Y541139D01*
X996724Y540486D01*
X997133Y539823D01*
X997525Y539150D01*
X997901Y538467D01*
X998260Y537775D01*
X998602Y537075D01*
X998926Y536366D01*
X999233Y535650D01*
X999523Y534927D01*
X999794Y534196D01*
X1000048Y533459D01*
X1000283Y532717D01*
X1000500Y531968D01*
X1000698Y531215D01*
X1000879Y530456D01*
X1001040Y529694D01*
X1001183Y528928D01*
X1001306Y528159D01*
X1001411Y527387D01*
X1001497Y526612D01*
X1001564Y525836D01*
X1001612Y525058D01*
X1001640Y524279D01*
X1001650Y523500D01*
X1001640Y522721D01*
X1001612Y521942D01*
X1001564Y521164D01*
X1001497Y520388D01*
X1001411Y519613D01*
X1001306Y518841D01*
X1001183Y518072D01*
X1001040Y517306D01*
X1000879Y516544D01*
X1000698Y515785D01*
X1000500Y515032D01*
X1000283Y514283D01*
X1000048Y513541D01*
X999794Y512804D01*
X999523Y512073D01*
X999233Y511350D01*
X998926Y510634D01*
X998602Y509925D01*
X998260Y509225D01*
X997901Y508533D01*
X997525Y507850D01*
X997133Y507177D01*
X996724Y506514D01*
X996299Y505861D01*
X995858Y505218D01*
X995402Y504587D01*
X994930Y503966D01*
X994443Y503358D01*
X993941Y502762D01*
X993425Y502178D01*
X992895Y501607D01*
X992351Y501049D01*
X991793Y500505D01*
X991222Y499975D01*
X990638Y499459D01*
X990042Y498957D01*
X989434Y498470D01*
X988813Y497998D01*
X988182Y497542D01*
X987539Y497101D01*
X986886Y496676D01*
X986223Y496267D01*
X985550Y495875D01*
X984867Y495499D01*
X984175Y495140D01*
X983475Y494798D01*
X982766Y494474D01*
X982050Y494167D01*
X981327Y493877D01*
X980596Y493606D01*
X979859Y493352D01*
X979117Y493117D01*
X978368Y492900D01*
X977615Y492702D01*
X976856Y492521D01*
X976094Y492360D01*
X975328Y492217D01*
X974559Y492094D01*
X973787Y491989D01*
X973012Y491903D01*
X972236Y491836D01*
X971458Y491788D01*
X970679Y491760D01*
X969900Y491750D01*
X969121Y491760D01*
X968342Y491788D01*
X967564Y491836D01*
X966788Y491903D01*
X966013Y491989D01*
X965241Y492094D01*
X964472Y492217D01*
X963706Y492360D01*
X962944Y492521D01*
X962185Y492702D01*
X961432Y492900D01*
X960683Y493117D01*
X959941Y493352D01*
X959204Y493606D01*
X958473Y493877D01*
X957750Y494167D01*
X957034Y494474D01*
X956325Y494798D01*
X955625Y495140D01*
X954933Y495499D01*
X954250Y495875D01*
X953577Y496267D01*
X952914Y496676D01*
X952261Y497101D01*
X951618Y497542D01*
X950987Y497998D01*
X950366Y498470D01*
X949758Y498957D01*
X949162Y499459D01*
X948578Y499975D01*
X948007Y500505D01*
X947449Y501049D01*
X946905Y501607D01*
X946375Y502178D01*
X945859Y502762D01*
X945357Y503358D01*
X944870Y503966D01*
X944398Y504587D01*
X943942Y505218D01*
X943501Y505861D01*
X943076Y506514D01*
X942667Y507177D01*
X942275Y507850D01*
X941899Y508533D01*
X941540Y509225D01*
X941198Y509925D01*
X940874Y510634D01*
X940567Y511350D01*
X940277Y512073D01*
X940006Y512804D01*
X939752Y513541D01*
X939517Y514283D01*
X939300Y515032D01*
X939102Y515785D01*
X938921Y516544D01*
X938760Y517306D01*
X938617Y518072D01*
X938494Y518841D01*
X938389Y519613D01*
X938303Y520388D01*
X938236Y521164D01*
X938188Y521942D01*
X938160Y522721D01*
X938150Y523500D01*
D11*
X983108Y555758D02*
X983108Y567452D01*
X983108Y555758D02*
X990904Y555758D01*
X994802Y567452D02*
X1002598Y567452D01*
X994802Y567452D02*
X994802Y555758D01*
X1002598Y555758D01*
X998700Y561605D02*
X994802Y561605D01*
X1006496Y567452D02*
X1006496Y555758D01*
X1012343Y555758D01*
X1014292Y557707D01*
X1014292Y565503D01*
X1012343Y567452D01*
X1006496Y567452D01*
X1018190Y563554D02*
X1022088Y567452D01*
X1022088Y555758D01*
X1018190Y555758D02*
X1025986Y555758D01*
D10*
X362500Y520500D02*
X346500Y520500D01*
X346500Y488500D01*
X362500Y488500D01*
X362500Y520500D01*
D11*
X343065Y489944D02*
X343065Y482148D01*
X339167Y486046D02*
X346963Y486046D01*
X367698Y479608D02*
X379392Y479608D01*
X367698Y479608D02*
X367698Y485455D01*
X369647Y487404D01*
X373545Y487404D01*
X375494Y485455D01*
X375494Y479608D01*
X375494Y483506D02*
X379392Y487404D01*
X369647Y491302D02*
X367698Y493251D01*
X367698Y497149D01*
X369647Y499098D01*
X371596Y499098D01*
X373545Y497149D01*
X375494Y499098D01*
X377443Y499098D01*
X379392Y497149D01*
X379392Y493251D01*
X377443Y491302D01*
X375494Y491302D01*
X373545Y493251D01*
X371596Y491302D01*
X369647Y491302D01*
X373545Y493251D02*
X373545Y497149D01*
D10*
X241000Y561100D02*
X71100Y561100D01*
X241000Y561100D02*
X241000Y440700D01*
X71100Y440700D01*
X71100Y561100D01*
X507500Y490500D02*
X537500Y490500D01*
X507500Y490500D02*
X507500Y550500D01*
X537500Y550500D01*
X537500Y490500D01*
D11*
X493097Y503504D02*
X491148Y501555D01*
X491148Y497657D01*
X493097Y495708D01*
X495046Y495708D01*
X496995Y497657D01*
X496995Y501555D01*
X498944Y503504D01*
X500893Y503504D01*
X502842Y501555D01*
X502842Y497657D01*
X500893Y495708D01*
X502842Y507402D02*
X491148Y507402D01*
X498944Y511300D02*
X502842Y507402D01*
X498944Y511300D02*
X502842Y515198D01*
X491148Y515198D01*
X502842Y519096D02*
X502842Y526892D01*
X502842Y519096D02*
X495046Y526892D01*
X493097Y526892D01*
X491148Y524943D01*
X491148Y521045D01*
X493097Y519096D01*
X778326Y578557D02*
X778326Y588302D01*
X778326Y578557D02*
X780275Y576608D01*
X784173Y576608D01*
X786122Y578557D01*
X786122Y588302D01*
X790020Y578557D02*
X791969Y576608D01*
X795867Y576608D01*
X797816Y578557D01*
X797816Y580506D01*
X795867Y582455D01*
X791969Y582455D01*
X790020Y584404D01*
X790020Y586353D01*
X791969Y588302D01*
X795867Y588302D01*
X797816Y586353D01*
X793918Y590251D02*
X793918Y574659D01*
X801714Y584404D02*
X805612Y588302D01*
X805612Y576608D01*
X801714Y576608D02*
X809510Y576608D01*
D10*
X728250Y594350D02*
X728250Y606850D01*
X728250Y594350D02*
X748250Y594350D01*
X748250Y606850D01*
X728250Y606850D01*
D11*
X744844Y610745D02*
X752640Y610745D01*
X748742Y614643D02*
X748742Y606847D01*
X735866Y624803D02*
X733917Y626752D01*
X730019Y626752D01*
X728070Y624803D01*
X728070Y617007D01*
X730019Y615058D01*
X733917Y615058D01*
X735866Y617007D01*
X739764Y626752D02*
X747560Y626752D01*
X747560Y624803D01*
X739764Y617007D01*
X739764Y615058D01*
D10*
X846950Y605850D02*
X846950Y593350D01*
X846950Y605850D02*
X826950Y605850D01*
X826950Y593350D01*
X846950Y593350D01*
D11*
X827474Y589465D02*
X819678Y589465D01*
X823576Y593363D02*
X823576Y585567D01*
X830605Y585152D02*
X832554Y583203D01*
X830605Y585152D02*
X826707Y585152D01*
X824758Y583203D01*
X824758Y575407D01*
X826707Y573458D01*
X830605Y573458D01*
X832554Y575407D01*
X836452Y583203D02*
X838401Y585152D01*
X842299Y585152D01*
X844248Y583203D01*
X844248Y581254D01*
X842299Y579305D01*
X844248Y577356D01*
X844248Y575407D01*
X842299Y573458D01*
X838401Y573458D01*
X836452Y575407D01*
X836452Y577356D01*
X838401Y579305D01*
X836452Y581254D01*
X836452Y583203D01*
X838401Y579305D02*
X842299Y579305D01*
M02*
