G04 EAGLE Gerber RS-274X export*
G75*
%MOMM*%
%FSLAX34Y34*%
%LPD*%
%INSoldermask Top*%
%IPPOS*%
%AMOC8*
5,1,8,0,0,1.08239X$1,22.5*%
G01*
%ADD10R,1.511200X1.511200*%
%ADD11C,1.524000*%
%ADD12C,1.611200*%
%ADD13R,2.203200X2.403200*%
%ADD14R,3.719200X3.719200*%
%ADD15R,1.711200X1.711200*%
%ADD16R,2.403200X6.203200*%
%ADD17R,2.203200X3.503200*%
%ADD18R,2.203200X3.703200*%
%ADD19R,1.703200X3.203200*%
%ADD20R,2.362200X1.473200*%
%ADD21C,1.117600*%
%ADD22C,1.422400*%
%ADD23C,1.219200*%


D10*
X331629Y629245D03*
X357029Y629245D03*
X382429Y629245D03*
X407829Y629245D03*
X433229Y629245D03*
X458629Y629245D03*
X458629Y781645D03*
X433229Y781645D03*
X407829Y781645D03*
X382429Y781645D03*
X357029Y781645D03*
X331629Y781645D03*
X842907Y629991D03*
X868307Y629991D03*
X893707Y629991D03*
X919107Y629991D03*
X944507Y629991D03*
X969907Y629991D03*
X969907Y782391D03*
X944507Y782391D03*
X919107Y782391D03*
X893707Y782391D03*
X868307Y782391D03*
X842907Y782391D03*
D11*
X570400Y467004D02*
X570400Y453796D01*
X595800Y453796D02*
X595800Y467004D01*
X621200Y467004D02*
X621200Y453796D01*
X646600Y453796D02*
X646600Y467004D01*
X672000Y467004D02*
X672000Y453796D01*
X697400Y453796D02*
X697400Y467004D01*
X722800Y467004D02*
X722800Y453796D01*
X748200Y453796D02*
X748200Y467004D01*
X773600Y467004D02*
X773600Y453796D01*
X799000Y453796D02*
X799000Y467004D01*
X824400Y467004D02*
X824400Y453796D01*
X849800Y453796D02*
X849800Y467004D01*
X875200Y467004D02*
X875200Y453796D01*
X900600Y453796D02*
X900600Y467004D01*
X900600Y529996D02*
X900600Y543204D01*
X875200Y543204D02*
X875200Y529996D01*
X849800Y529996D02*
X849800Y543204D01*
X824400Y543204D02*
X824400Y529996D01*
X799000Y529996D02*
X799000Y543204D01*
X773600Y543204D02*
X773600Y529996D01*
X748200Y529996D02*
X748200Y543204D01*
X722800Y543204D02*
X722800Y529996D01*
X697400Y529996D02*
X697400Y543204D01*
X672000Y543204D02*
X672000Y529996D01*
X646600Y529996D02*
X646600Y543204D01*
X621200Y543204D02*
X621200Y529996D01*
X595800Y529996D02*
X595800Y543204D01*
X570400Y543204D02*
X570400Y529996D01*
X570400Y564996D02*
X570400Y578204D01*
X595800Y578204D02*
X595800Y564996D01*
X621200Y564996D02*
X621200Y578204D01*
X646600Y578204D02*
X646600Y564996D01*
X672000Y564996D02*
X672000Y578204D01*
X697400Y578204D02*
X697400Y564996D01*
X722800Y564996D02*
X722800Y578204D01*
X748200Y578204D02*
X748200Y564996D01*
X773600Y564996D02*
X773600Y578204D01*
X799000Y578204D02*
X799000Y564996D01*
X824400Y564996D02*
X824400Y578204D01*
X849800Y578204D02*
X849800Y564996D01*
X875200Y564996D02*
X875200Y578204D01*
X900600Y578204D02*
X900600Y564996D01*
X900600Y502004D02*
X900600Y488796D01*
X875200Y488796D02*
X875200Y502004D01*
X849800Y502004D02*
X849800Y488796D01*
X824400Y488796D02*
X824400Y502004D01*
X799000Y502004D02*
X799000Y488796D01*
X773600Y488796D02*
X773600Y502004D01*
X748200Y502004D02*
X748200Y488796D01*
X722800Y488796D02*
X722800Y502004D01*
X697400Y502004D02*
X697400Y488796D01*
X672000Y488796D02*
X672000Y502004D01*
X646600Y502004D02*
X646600Y488796D01*
X621200Y488796D02*
X621200Y502004D01*
X595800Y502004D02*
X595800Y488796D01*
X570400Y488796D02*
X570400Y502004D01*
D12*
X969900Y548900D03*
X969900Y523500D03*
X969900Y498100D03*
D13*
X354500Y487000D03*
X354500Y521500D03*
D14*
X173500Y561600D03*
X173500Y441200D03*
D15*
X200600Y513900D03*
X200600Y488900D03*
X220750Y513700D03*
X220800Y488850D03*
D16*
X353800Y432000D03*
X393200Y432000D03*
X433800Y432000D03*
D17*
X522500Y470500D03*
D18*
X522500Y570500D03*
D19*
X555700Y414800D03*
X628300Y414300D03*
X719700Y415800D03*
X792300Y415300D03*
X959300Y414700D03*
X886700Y415200D03*
D10*
X774800Y601500D03*
X800200Y601500D03*
D20*
X752290Y600850D03*
X724710Y600850D03*
X822910Y599350D03*
X850490Y599350D03*
D21*
X171150Y753425D03*
X422013Y571350D03*
X501650Y571500D03*
X293138Y569025D03*
D22*
X514550Y416850D03*
D21*
X975600Y440550D03*
X331000Y548250D03*
X296650Y701650D03*
X217100Y640650D03*
X258500Y495450D03*
X297888Y598025D03*
X329088Y529938D03*
X501350Y476038D03*
X374650Y520700D03*
X456600Y418600D03*
X449950Y495500D03*
X458225Y582775D03*
X495600Y463163D03*
X377825Y473075D03*
X554000Y472775D03*
X496600Y490538D03*
X495863Y551375D03*
X826813Y773113D03*
X774700Y742950D03*
X480500Y733425D03*
X919988Y691425D03*
X576663Y717950D03*
D23*
X413500Y721600D03*
D21*
X535000Y656200D03*
X707000Y669050D03*
X736200Y635850D03*
X663575Y752475D03*
X795113Y700813D03*
X433575Y679225D03*
X944850Y677050D03*
X869100Y722800D03*
X673488Y622963D03*
X645100Y638950D03*
X671663Y693300D03*
X772825Y689950D03*
X958400Y600275D03*
X845800Y657700D03*
X716300Y706200D03*
X431825Y697213D03*
X590138Y691000D03*
X832700Y410475D03*
X661988Y417513D03*
X837575Y423125D03*
X608363Y516988D03*
X468313Y519113D03*
X466350Y440988D03*
X654025Y765175D03*
M02*
